<svg xmlns="http://www.w3.org/2000/svg" width="24" height="24" viewBox="0 0 24 24" fill="none" stroke="#115e59" stroke-width="2" stroke-linecap="round" stroke-linejoin="round">
  <path d="M12 15.2a3.2 3.2 0 1 0 0-6.4 3.2 3.2 0 0 0 0 6.4Z"/>
  <path d="M19.4 15a1.8 1.8 0 0 0 .36 1.98l.04.04a2.15 2.15 0 0 1-3.04 3.04l-.04-.04a1.8 1.8 0 0 0-1.98-.36 1.8 1.8 0 0 0-1.08 1.65V21.4a2.15 2.15 0 0 1-4.3 0v-.09a1.8 1.8 0 0 0-1.08-1.65 1.8 1.8 0 0 0-1.98.36l-.04.04a2.15 2.15 0 0 1-3.04-3.04l.04-.04A1.8 1.8 0 0 0 4.6 15a1.8 1.8 0 0 0-1.65-1.08H2.85a2.15 2.15 0 0 1 0-4.3h.1A1.8 1.8 0 0 0 4.6 8.54a1.8 1.8 0 0 0-.36-1.98l-.04-.04a2.15 2.15 0 0 1 3.04-3.04l.04.04a1.8 1.8 0 0 0 1.98.36 1.8 1.8 0 0 0 1.08-1.65v-.09a2.15 2.15 0 0 1 4.3 0v.09a1.8 1.8 0 0 0 1.08 1.65 1.8 1.8 0 0 0 1.98-.36l.04-.04a2.15 2.15 0 0 1 3.04 3.04l-.04.04a1.8 1.8 0 0 0-.36 1.98 1.8 1.8 0 0 0 1.65 1.08h.1a2.15 2.15 0 0 1 0 4.3h-.1A1.8 1.8 0 0 0 19.4 15Z"/>
</svg>